<svg width="80" height="83" fill="none" xmlns="http://www.w3.org/2000/svg"><path d="M65.657 35.829H14.391a3.266 3.266 0 01-3.263-3.262v-9.773a3.267 3.267 0 013.263-3.262h51.265a3.266 3.266 0 013.262 3.262v9.774a3.264 3.264 0 01-3.261 3.26zM14.391 22.032a.773.773 0 00-.763.762v9.774c0 .42.342.762.763.762h51.265c.42 0 .762-.342.762-.762v-9.773a.772.772 0 00-.762-.763H14.391z" fill="#fff"/><path d="M58.507 69.308h-36.97a6.289 6.289 0 01-6.281-6.282V34.579a1.25 1.25 0 012.5 0v28.447a3.786 3.786 0 003.781 3.782h36.97a3.786 3.786 0 003.781-3.782V34.579a1.25 1.25 0 012.5 0v28.447a6.288 6.288 0 01-6.28 6.282z" fill="#fff"/><path d="M40.023 69.308c-.69 0-1.25-.56-1.25-1.25v-33.48a1.25 1.25 0 012.5 0v33.479c0 .691-.56 1.25-1.25 1.25zm-15.601-47.28c-3.913-2.12-5.373-7.028-3.255-10.941 2.117-3.911 7.024-5.372 10.939-3.256 5.963 3.23 9.183 12.242 9.316 12.623l-2.358.83c-.03-.085-3.038-8.486-8.148-11.254a5.578 5.578 0 00-7.55 2.247 5.579 5.579 0 002.248 7.552l-1.192 2.199z" fill="#fff"/><path d="M55.622 22.027l-1.19-2.198a5.541 5.541 0 002.689-3.31 5.53 5.53 0 00-.442-4.241A5.527 5.527 0 0053.37 9.59a5.533 5.533 0 00-4.24.44c-5.11 2.768-8.118 11.168-8.148 11.253l-2.359-.83c.134-.381 3.353-9.392 9.317-12.622a8.015 8.015 0 016.143-.637 8.01 8.01 0 014.794 3.893 8.013 8.013 0 01.639 6.144 8.027 8.027 0 01-3.895 4.796zm7.916 30.542H16.506a1.25 1.25 0 010-2.5h47.032a1.25 1.25 0 010 2.5z" fill="#fff"/></svg>